<mxfile host="drawio-plugin" modified="2022-11-22T14:55:44.463Z" agent="5.0 (X11; Linux x86_64) AppleWebKit/537.36 (KHTML, like Gecko) Chrome/98.0.4758.102 Safari/537.36" version="20.5.3" etag="o5coYZXtDLrQyFDfW-dw" type="embed"><diagram id="L-ByjydZCoXPyMtW_h7v" name="Page-1"><mxGraphModel dx="2578" dy="1123" grid="1" gridSize="10" guides="1" tooltips="1" connect="1" arrows="1" fold="1" page="0" pageScale="1" pageWidth="827" pageHeight="1169" background="none" math="0" shadow="1"><root><mxCell id="0"/><mxCell id="1" parent="0"/><mxCell id="node2" value="&lt;p style=&quot;margin:0px;margin-top:4px;text-align:center;&quot;&gt;&lt;b&gt;Contrato&lt;/b&gt;&lt;/p&gt;&lt;hr size=&quot;1&quot;/&gt;&lt;p style=&quot;margin:0 0 0 4px;line-height:1.6;&quot;&gt;+ Contrato(): &lt;/p&gt;&lt;hr size=&quot;1&quot;/&gt;&lt;p style=&quot;margin:0 0 0 4px;line-height:1.6;&quot;&gt;+ criarContrato(): TipoDeContrato&lt;br/&gt;+ tipoDeContrato(): void&lt;/p&gt;" style="verticalAlign=top;align=left;overflow=fill;fontSize=14;fontFamily=Helvetica;html=1;rounded=0;shadow=0;comic=0;labelBackgroundColor=none;strokeWidth=1;" parent="1" vertex="1"><mxGeometry x="-585" y="-88" width="263" height="116" as="geometry"/></mxCell><mxCell id="node3" value="&lt;p style=&quot;margin:0px;margin-top:4px;text-align:center;&quot;&gt;&lt;b&gt;ContratoCustomizado&lt;/b&gt;&lt;/p&gt;&lt;hr size=&quot;1&quot;/&gt;&lt;p style=&quot;margin:0 0 0 4px;line-height:1.6;&quot;&gt;+ ContratoCustomizado(): &lt;/p&gt;&lt;hr size=&quot;1&quot;/&gt;&lt;p style=&quot;margin:0 0 0 4px;line-height:1.6;&quot;&gt;+ criarContrato(): TipoDeContrato&lt;/p&gt;" style="verticalAlign=top;align=left;overflow=fill;fontSize=14;fontFamily=Helvetica;html=1;rounded=0;shadow=0;comic=0;labelBackgroundColor=none;strokeWidth=1;" parent="1" vertex="1"><mxGeometry x="-585" y="-259" width="263" height="90" as="geometry"/></mxCell><mxCell id="node5" value="&lt;p style=&quot;margin:0px;margin-top:4px;text-align:center;&quot;&gt;&lt;b&gt;ContratoPadrao&lt;/b&gt;&lt;/p&gt;&lt;hr size=&quot;1&quot;/&gt;&lt;p style=&quot;margin:0 0 0 4px;line-height:1.6;&quot;&gt;+ ContratoPadrao(): &lt;/p&gt;&lt;hr size=&quot;1&quot;/&gt;&lt;p style=&quot;margin:0 0 0 4px;line-height:1.6;&quot;&gt;+ criarContrato(): TipoDeContrato&lt;/p&gt;" style="verticalAlign=top;align=left;overflow=fill;fontSize=14;fontFamily=Helvetica;html=1;rounded=0;shadow=0;comic=0;labelBackgroundColor=none;strokeWidth=1;" parent="1" vertex="1"><mxGeometry x="-585" y="108" width="263" height="90" as="geometry"/></mxCell><mxCell id="node0" value="&lt;p style=&quot;margin:0px;margin-top:4px;text-align:center;&quot;&gt;&lt;b&gt;Customizado&lt;/b&gt;&lt;/p&gt;&lt;hr size=&quot;1&quot;/&gt;&lt;p style=&quot;margin:0 0 0 4px;line-height:1.6;&quot;&gt;+ Customizado(): &lt;/p&gt;&lt;hr size=&quot;1&quot;/&gt;&lt;p style=&quot;margin:0 0 0 4px;line-height:1.6;&quot;&gt;+ exibirContrato(): void&lt;/p&gt;" style="verticalAlign=top;align=left;overflow=fill;fontSize=14;fontFamily=Helvetica;html=1;rounded=0;shadow=0;comic=0;labelBackgroundColor=none;strokeWidth=1;" parent="1" vertex="1"><mxGeometry x="-163" y="-250" width="191" height="99" as="geometry"/></mxCell><mxCell id="node4" value="&lt;p style=&quot;margin:0px;margin-top:4px;text-align:center;&quot;&gt;&lt;b&gt;FactoryContratoDemo&lt;/b&gt;&lt;/p&gt;&lt;hr size=&quot;1&quot;/&gt;&lt;p style=&quot;margin:0 0 0 4px;line-height:1.6;&quot;&gt;+ FactoryContratoDemo(): &lt;/p&gt;&lt;hr size=&quot;1&quot;/&gt;&lt;p style=&quot;margin:0 0 0 4px;line-height:1.6;&quot;&gt;- contrato: Contrato&lt;/p&gt;&lt;hr size=&quot;1&quot;/&gt;&lt;p style=&quot;margin:0 0 0 4px;line-height:1.6;&quot;&gt;+ main(String[]): void&lt;br/&gt;- exibirContrato(Contrato): void&lt;/p&gt;" style="verticalAlign=top;align=left;overflow=fill;fontSize=14;fontFamily=Helvetica;html=1;rounded=0;shadow=0;comic=0;labelBackgroundColor=none;strokeWidth=1;" parent="1" vertex="1"><mxGeometry x="-1005" y="-100" width="253" height="170" as="geometry"/></mxCell><mxCell id="node1" value="&lt;p style=&quot;margin:0px;margin-top:4px;text-align:center;&quot;&gt;&lt;b&gt;Padrao&lt;/b&gt;&lt;/p&gt;&lt;hr size=&quot;1&quot;/&gt;&lt;p style=&quot;margin:0 0 0 4px;line-height:1.6;&quot;&gt;+ Padrao(): &lt;/p&gt;&lt;hr size=&quot;1&quot;/&gt;&lt;p style=&quot;margin:0 0 0 4px;line-height:1.6;&quot;&gt;+ exibirContrato(): void&lt;/p&gt;" style="verticalAlign=top;align=left;overflow=fill;fontSize=14;fontFamily=Helvetica;html=1;rounded=0;shadow=0;comic=0;labelBackgroundColor=none;strokeWidth=1;" parent="1" vertex="1"><mxGeometry x="-163" y="90" width="191" height="90" as="geometry"/></mxCell><mxCell id="node6" value="&lt;p style=&quot;margin:0px;margin-top:4px;text-align:center;&quot;&gt;&lt;i&gt;&amp;lt;&amp;lt;interface&amp;gt;&amp;gt;&lt;/i&gt;&lt;br/&gt;&lt;b&gt;TipoDeContrato&lt;/b&gt;&lt;/p&gt;&lt;hr size=&quot;1&quot;/&gt;&lt;p style=&quot;margin:0 0 0 4px;line-height:1.6;&quot;&gt;+ exibirContrato(): void&lt;/p&gt;" style="verticalAlign=top;align=left;overflow=fill;fontSize=14;fontFamily=Helvetica;html=1;rounded=0;shadow=0;comic=0;labelBackgroundColor=none;strokeWidth=1;" parent="1" vertex="1"><mxGeometry x="-163" y="-63" width="191" height="73" as="geometry"/></mxCell><mxCell id="edge2" value="" style="html=1;rounded=0;edgeStyle=orthogonalEdgeStyle;dashed=0;startArrow=none;endArrow=block;endSize=12;strokeColor=#589df6;exitX=0.500;exitY=1.001;exitDx=0;exitDy=0;entryX=0.500;entryY=0.000;entryDx=0;entryDy=0;" parent="1" source="node3" target="node2" edge="1"><mxGeometry width="50" height="50" relative="1" as="geometry"><Array as="points"/></mxGeometry></mxCell><mxCell id="edge4" value="" style="html=1;rounded=0;edgeStyle=orthogonalEdgeStyle;dashed=1;startArrow=none;endArrow=openThin;endSize=12;strokeColor=#bbbbbb;exitX=1.000;exitY=0.717;exitDx=0;exitDy=0;entryX=0.000;entryY=0.500;entryDx=0;entryDy=0;" parent="1" source="node3" target="node0" edge="1"><mxGeometry width="50" height="50" relative="1" as="geometry"><Array as="points"/></mxGeometry></mxCell><mxCell id="label26" value="«create»" style="edgeLabel;resizable=0;html=1;align=left;verticalAlign=top;strokeColor=default;rounded=0;" parent="edge4" vertex="1" connectable="0"><mxGeometry x="-271" y="-219" as="geometry"/></mxCell><mxCell id="edge0" value="" style="html=1;rounded=0;edgeStyle=orthogonalEdgeStyle;dashed=0;startArrow=none;endArrow=block;endSize=12;strokeColor=#589df6;exitX=1.000;exitY=0.500;exitDx=0;exitDy=0;entryX=0.500;entryY=0.000;entryDx=0;entryDy=0;" parent="1" source="node5" target="node2" edge="1"><mxGeometry width="50" height="50" relative="1" as="geometry"><Array as="points"><mxPoint x="-305" y="149"/><mxPoint x="-305" y="-132"/><mxPoint x="-454" y="-132"/></Array></mxGeometry></mxCell><mxCell id="edge6" value="" style="html=1;rounded=0;edgeStyle=orthogonalEdgeStyle;dashed=1;startArrow=none;endArrow=openThin;endSize=12;strokeColor=#bbbbbb;exitX=1.000;exitY=0.283;exitDx=0;exitDy=0;entryX=0.000;entryY=0.500;entryDx=0;entryDy=0;" parent="1" source="node5" target="node1" edge="1"><mxGeometry width="50" height="50" relative="1" as="geometry"><Array as="points"/></mxGeometry></mxCell><mxCell id="label38" value="«create»" style="edgeLabel;resizable=0;html=1;align=left;verticalAlign=top;strokeColor=default;rounded=0;" parent="edge6" vertex="1" connectable="0"><mxGeometry x="-271" y="112" as="geometry"/></mxCell><mxCell id="edge1" value="" style="html=1;rounded=0;edgeStyle=orthogonalEdgeStyle;dashed=1;startArrow=none;endArrow=block;endSize=12;strokeColor=#609350;exitX=0.500;exitY=1.001;exitDx=0;exitDy=0;entryX=0.500;entryY=0.001;entryDx=0;entryDy=0;" parent="1" source="node0" target="node6" edge="1"><mxGeometry width="50" height="50" relative="1" as="geometry"><Array as="points"/></mxGeometry></mxCell><mxCell id="edge8" value="" style="html=1;rounded=0;edgeStyle=orthogonalEdgeStyle;dashed=0;startArrow=diamondThinstartSize=12;endArrow=openThin;endSize=12;strokeColor=#bbbbbb;exitX=1.000;exitY=0.500;exitDx=0;exitDy=0;entryX=0.000;entryY=0.500;entryDx=0;entryDy=0;" parent="1" source="node4" target="node2" edge="1"><mxGeometry width="50" height="50" relative="1" as="geometry"><Array as="points"/></mxGeometry></mxCell><mxCell id="label48" value="1" style="edgeLabel;resizable=0;html=1;align=left;verticalAlign=top;strokeColor=default;rounded=0;" parent="edge8" vertex="1" connectable="0"><mxGeometry x="-738" y="-49" as="geometry"/></mxCell><mxCell id="label52" value="1" style="edgeLabel;resizable=0;html=1;align=left;verticalAlign=top;strokeColor=default;rounded=0;" parent="edge8" vertex="1" connectable="0"><mxGeometry x="-602" y="-49" as="geometry"/></mxCell><mxCell id="label53" value="contrato" style="edgeLabel;resizable=0;html=1;align=left;verticalAlign=top;strokeColor=default;rounded=0;" parent="edge8" vertex="1" connectable="0"><mxGeometry x="-645" y="-16" as="geometry"/></mxCell><mxCell id="edge7" value="" style="html=1;rounded=0;edgeStyle=orthogonalEdgeStyle;dashed=1;startArrow=none;endArrow=openThin;endSize=12;strokeColor=#bbbbbb;exitX=0.500;exitY=0.000;exitDx=0;exitDy=0;entryX=0.000;entryY=0.500;entryDx=0;entryDy=0;" parent="1" source="node4" target="node3" edge="1"><mxGeometry width="50" height="50" relative="1" as="geometry"><Array as="points"><mxPoint x="-878" y="-218"/></Array></mxGeometry></mxCell><mxCell id="label44" value="«create»" style="edgeLabel;resizable=0;html=1;align=left;verticalAlign=top;strokeColor=default;rounded=0;" parent="edge7" vertex="1" connectable="0"><mxGeometry x="-776" y="-255" as="geometry"/></mxCell><mxCell id="edge5" value="" style="html=1;rounded=0;edgeStyle=orthogonalEdgeStyle;dashed=1;startArrow=none;endArrow=openThin;endSize=12;strokeColor=#bbbbbb;exitX=0.500;exitY=1.000;exitDx=0;exitDy=0;entryX=0.000;entryY=0.500;entryDx=0;entryDy=0;" parent="1" source="node4" target="node5" edge="1"><mxGeometry width="50" height="50" relative="1" as="geometry"><Array as="points"><mxPoint x="-878" y="149"/></Array></mxGeometry></mxCell><mxCell id="label32" value="«create»" style="edgeLabel;resizable=0;html=1;align=left;verticalAlign=top;strokeColor=default;rounded=0;" parent="edge5" vertex="1" connectable="0"><mxGeometry x="-810" y="140" as="geometry"/></mxCell><mxCell id="edge3" value="" style="html=1;rounded=0;edgeStyle=orthogonalEdgeStyle;dashed=1;startArrow=none;endArrow=block;endSize=12;strokeColor=#609350;exitX=1.000;exitY=0.500;exitDx=0;exitDy=0;entryX=0.500;entryY=0.001;entryDx=0;entryDy=0;" parent="1" source="node1" target="node6" edge="1"><mxGeometry width="50" height="50" relative="1" as="geometry"><Array as="points"><mxPoint x="46" y="131"/><mxPoint x="46" y="-111"/><mxPoint x="-67" y="-111"/></Array></mxGeometry></mxCell></root></mxGraphModel></diagram></mxfile>